<svg width="20" height="20" viewBox="0 0 20 20" fill="none" xmlns="http://www.w3.org/2000/svg">
<path d="M14.3116 0C17.3609 0 19.833 2.80122 19.833 6.25657V13.7434C19.833 17.1988 17.3609 20 14.3116 20H6.35445C3.30509 20 0.833008 17.1988 0.833008 13.7434V6.25657C0.833008 2.80122 3.30509 0 6.35445 0H14.3116ZM14.3116 1.56475H6.35445C4.06774 1.56475 2.2139 3.66541 2.2139 6.25657V13.7434C2.2139 16.3346 4.06774 18.4352 6.35445 18.4352H14.3116C16.5983 18.4352 18.4521 16.3346 18.4521 13.7434L18.4517 13.4516L15.4154 13.4524C13.6659 13.4512 12.2481 11.8453 12.247 9.86262C12.247 7.94646 13.5726 6.38152 15.242 6.27822L15.4159 6.2728L18.4517 6.27263L18.4521 6.25657C18.4521 3.74162 16.7057 1.68874 14.5122 1.57016L14.3116 1.56475ZM18.4517 7.83684L15.4163 7.83755C14.4284 7.83823 13.6279 8.74466 13.6279 9.86214C13.6285 10.9275 14.3542 11.8002 15.2762 11.8815L15.4159 11.8877L18.4517 11.8874V7.83684ZM15.8375 9.01598C16.2188 9.01598 16.5279 9.36626 16.5279 9.79835C16.5279 10.1944 16.2682 10.5218 15.9312 10.5736L15.8375 10.5807H15.5505C15.1692 10.5807 14.8601 10.2304 14.8601 9.79835C14.8601 9.40227 15.1198 9.07493 15.4568 9.02312L15.5505 9.01598H15.8375ZM10.6692 4.73407C11.0505 4.73407 11.3596 5.08435 11.3596 5.51644C11.3596 5.91253 11.0999 6.23987 10.7629 6.29168L10.6692 6.29882H5.69893C5.31761 6.29882 5.00848 5.94854 5.00848 5.51644C5.00848 5.12036 5.26823 4.79302 5.60524 4.74121L5.69893 4.73407H10.6692Z" fill="white"/>
</svg>
