<svg width="19" height="20" viewBox="0 0 19 20" fill="none" xmlns="http://www.w3.org/2000/svg">
<path d="M13.1944 13.8889C14.0706 13.8889 14.7778 13.1444 14.7778 12.2222C14.7778 11.3 14.0706 10.5556 13.1944 10.5556C12.3183 10.5556 11.6111 11.3 11.6111 12.2222C11.6111 13.1444 12.3183 13.8889 13.1944 13.8889ZM4.22222 0H14.7778C15.3377 0 15.8746 0.234126 16.2706 0.650874C16.6665 1.06762 16.8889 1.63285 16.8889 2.22222V4.44444C17.4488 4.44444 17.9858 4.67857 18.3817 5.09532C18.7776 5.51207 19 6.0773 19 6.66667V17.7778C19 19.0111 18.0606 20 16.8889 20H4.22222C1.88944 20 0 18.0111 0 15.5556V4.44444C0 1.98889 1.88944 0 4.22222 0ZM14.7778 4.44444V2.22222H4.22222C3.06111 2.22222 2.11111 3.22222 2.11111 4.44444V5.04444C2.75255 4.65277 3.48067 4.44583 4.22222 4.44444H14.7778ZM2.11111 15.5556C2.11111 16.1449 2.33353 16.7102 2.72944 17.1269C3.12535 17.5437 3.66232 17.7778 4.22222 17.7778H16.8889V6.66667H4.22222C3.06111 6.66667 2.11111 7.66667 2.11111 8.88889V15.5556Z" fill="white"/>
</svg>
