<svg xmlns="http://www.w3.org/2000/svg">
<path d="M8.45861 7.94073C8.45861 7.34663 8.91562 6.9745 9.53583 6.90268V8.99837C9.47055 8.98531 9.41179 8.96573 9.35303 8.94614C8.75893 8.75028 8.45861 8.4108 8.45861 7.94073ZM11.7229 12.0146C11.7229 12.6544 11.2333 13.0788 10.5412 13.1375V10.8851C10.5869 10.8982 10.6326 10.9113 10.6718 10.9178C11.403 11.1202 11.7229 11.4792 11.7229 12.0146ZM10.5543 15.3768L10.5478 14.5477C12.3366 14.378 13.4726 13.3921 13.4726 11.8383C13.4726 10.2584 12.4084 9.59248 11.0962 9.31174L10.5412 9.19423V6.91574C11.2333 7.02673 11.6185 7.54902 11.6381 8.07131H13.3094C13.2833 6.71335 12.2191 5.68183 10.5674 5.50556V4.65684H9.50972V5.49903C7.92979 5.64266 6.68935 6.51097 6.68935 8.07784C6.68935 9.55983 7.76005 10.3172 8.97437 10.5848L9.53583 10.7089V13.1375C8.70017 13.0265 8.26275 12.5238 8.23011 11.9232H6.51961C6.53267 13.131 7.34222 14.4041 9.50319 14.5608L9.49666 15.3768H10.5543Z" fill="white"/>
<path fill-rule="evenodd" clip-rule="evenodd" d="M9.99961 1.89961C5.5261 1.89961 1.89961 5.5261 1.89961 9.99961C1.89961 14.4731 5.5261 18.0996 9.99961 18.0996C14.4731 18.0996 18.0996 14.4731 18.0996 9.99961C18.0996 5.5261 14.4731 1.89961 9.99961 1.89961ZM0.0996094 9.99961C0.0996094 4.53199 4.53199 0.0996094 9.99961 0.0996094C15.4672 0.0996094 19.8996 4.53199 19.8996 9.99961C19.8996 15.4672 15.4672 19.8996 9.99961 19.8996C4.53199 19.8996 0.0996094 15.4672 0.0996094 9.99961Z" fill="white"/>
</svg>
