<svg width="22" height="22" viewBox="0 0 22 22" fill="none" xmlns="http://www.w3.org/2000/svg">
<path d="M18.3515 10.009C18.3515 10.4232 18.6872 10.759 19.1015 10.759C19.5157 10.759 19.8515 10.4232 19.8515 10.009H18.3515ZM19.1015 7.793L18.3515 7.79121V7.793H19.1015ZM17.5725 5.183L17.9376 4.52791L17.9365 4.52727L17.5725 5.183ZM11.6155 1.876L11.2508 2.53137L11.2514 2.53174L11.6155 1.876ZM8.71746 1.876L9.0814 2.53178L9.08214 2.53137L8.71746 1.876ZM2.76046 5.182L2.39651 4.52622L2.39527 4.52691L2.76046 5.182ZM1.23146 7.793L1.98146 7.793L1.98145 7.79096L1.23146 7.793ZM1.23146 14.207L1.98146 14.2088V14.207H1.23146ZM2.76046 16.817L2.39527 17.4721L2.39643 17.4727L2.76046 16.817ZM8.71746 20.124L9.08214 19.4686L9.08148 19.4683L8.71746 20.124ZM11.6155 20.124L11.2514 19.4683L11.2508 19.4686L11.6155 20.124ZM14.5015 19.3797C14.8636 19.1787 14.9942 18.7221 14.7932 18.36C14.5922 17.9978 14.1356 17.8672 13.7734 18.0683L14.5015 19.3797ZM18.8827 6.63892C19.2377 6.42562 19.3527 5.96486 19.1394 5.60979C18.9261 5.25472 18.4653 5.13979 18.1102 5.35309L18.8827 6.63892ZM2.22267 5.35309C1.8676 5.13979 1.40684 5.25472 1.19354 5.60979C0.980242 5.96486 1.09517 6.42562 1.45024 6.63892L2.22267 5.35309ZM9.41646 20.49C9.41646 20.9042 9.75224 21.24 10.1665 21.24C10.5807 21.24 10.9165 20.9042 10.9165 20.49H9.41646ZM19.1015 10.009H19.8515V7.793H19.1015H18.3515V10.009H19.1015ZM19.1015 7.793L19.8515 7.79479C19.853 7.12901 19.6764 6.47494 19.3399 5.90048L18.6927 6.27958L18.0456 6.65869C18.2468 7.00213 18.3524 7.39317 18.3515 7.79121L19.1015 7.793ZM18.6927 6.27958L19.3399 5.90048C19.0033 5.32601 18.5192 4.85209 17.9376 4.52791L17.5725 5.183L17.2073 5.83809C17.5549 6.0319 17.8444 6.31524 18.0456 6.65869L18.6927 6.27958ZM17.5725 5.183L17.9365 4.52727L11.9795 1.22027L11.6155 1.876L11.2514 2.53174L17.2084 5.83874L17.5725 5.183ZM11.6155 1.876L11.9801 1.22063C11.4255 0.911989 10.8012 0.75 10.1665 0.75V1.5V2.25C10.5459 2.25 10.9192 2.34685 11.2508 2.53137L11.6155 1.876ZM10.1665 1.5V0.75C9.5317 0.75 8.90744 0.911989 8.35277 1.22063L8.71746 1.876L9.08214 2.53137C9.41375 2.34685 9.78696 2.25 10.1665 2.25V1.5ZM8.71746 1.876L8.35351 1.22022L2.39651 4.52622L2.76046 5.182L3.1244 5.83778L9.0814 2.53178L8.71746 1.876ZM2.76046 5.182L2.39527 4.52691C1.81356 4.85119 1.32928 5.32531 0.992729 5.90001L1.63992 6.27901L2.28712 6.65801C2.48833 6.31442 2.77786 6.03097 3.12564 5.83709L2.76046 5.182ZM1.63992 6.27901L0.992729 5.90001C0.656182 6.47472 0.479646 7.12905 0.481459 7.79504L1.23146 7.793L1.98145 7.79096C1.98037 7.39279 2.08591 7.0016 2.28712 6.65801L1.63992 6.27901ZM1.23146 7.793H0.481456V14.207H1.23146H1.98146V7.793H1.23146ZM1.23146 14.207L0.481458 14.2052C0.479869 14.871 0.656511 15.5251 0.993046 16.0995L1.64018 15.7204L2.28731 15.3413C2.08611 14.9979 1.9805 14.6068 1.98145 14.2088L1.23146 14.207ZM1.64018 15.7204L0.993046 16.0995C1.32958 16.674 1.81374 17.1479 2.39527 17.4721L2.76046 16.817L3.12564 16.1619C2.77797 15.9681 2.48851 15.6848 2.28731 15.3413L1.64018 15.7204ZM2.76046 16.817L2.39643 17.4727L8.35343 20.7797L8.71746 20.124L9.08148 19.4683L3.12448 16.1613L2.76046 16.817ZM8.71746 20.124L8.35277 20.7794C8.90744 21.088 9.5317 21.25 10.1665 21.25V20.5V19.75C9.78696 19.75 9.41375 19.6532 9.08214 19.4686L8.71746 20.124ZM10.1665 20.5V21.25C10.8012 21.25 11.4255 21.088 11.9801 20.7794L11.6155 20.124L11.2508 19.4686C10.9192 19.6532 10.5459 19.75 10.1665 19.75V20.5ZM11.6155 20.124L11.9795 20.7797L14.5015 19.3797L14.1375 18.724L13.7734 18.0683L11.2514 19.4683L11.6155 20.124ZM18.4965 5.996L18.1102 5.35309L9.78024 10.3571L10.1665 11L10.5527 11.6429L18.8827 6.63892L18.4965 5.996ZM10.1665 11L10.5527 10.3571L2.22267 5.35309L1.83646 5.996L1.45024 6.63892L9.78024 11.6429L10.1665 11ZM10.1665 20.49H10.9165V11H10.1665H9.41646V20.49H10.1665ZM20.8715 15.501H20.1215C20.1215 16.399 19.3935 17.127 18.4955 17.127V17.877V18.627C20.2219 18.627 21.6215 17.2274 21.6215 15.501H20.8715ZM18.4955 17.877V17.127C17.5974 17.127 16.8695 16.399 16.8695 15.501H16.1195H15.3695C15.3695 17.2274 16.769 18.627 18.4955 18.627V17.877ZM16.1195 15.501H16.8695C16.8695 14.603 17.5974 13.875 18.4955 13.875V13.125V12.375C16.769 12.375 15.3695 13.7746 15.3695 15.501H16.1195ZM18.4955 13.125V13.875C19.3935 13.875 20.1215 14.603 20.1215 15.501H20.8715H21.6215C21.6215 13.7746 20.2219 12.375 18.4955 12.375V13.125Z" fill="white"/>
</svg>
