<svg width="20" height="18" viewBox="0 0 20 18" fill="none" xmlns="http://www.w3.org/2000/svg">
<path d="M1.22255 12C1.48109 12 1.73063 12.09 1.92383 12.2527C2.11703 12.4155 2.24047 12.6397 2.27071 12.883L2.2781 13V16H6.50033C6.76937 16.0003 7.02814 16.0979 7.22377 16.2728C7.4194 16.4478 7.53713 16.687 7.5529 16.9414C7.56866 17.1958 7.48128 17.4464 7.3086 17.6418C7.13592 17.8373 6.89098 17.9629 6.62383 17.993L6.50033 18H2.2781C1.74549 18.0002 1.23251 17.8096 0.841969 17.4665C0.451433 17.1234 0.212216 16.6532 0.17227 16.15L0.166992 16V13C0.166992 12.7348 0.278202 12.4804 0.476157 12.2929C0.674112 12.1054 0.942597 12 1.22255 12ZM18.1114 12C18.3914 12 18.6599 12.1054 18.8578 12.2929C19.0558 12.4804 19.167 12.7348 19.167 13V16C19.167 16.5304 18.9446 17.0391 18.5487 17.4142C18.1528 17.7893 17.6158 18 17.0559 18H12.8337C12.5537 18 12.2852 17.8946 12.0873 17.7071C11.8893 17.5196 11.7781 17.2652 11.7781 17C11.7781 16.7348 11.8893 16.4804 12.0873 16.2929C12.2852 16.1054 12.5537 16 12.8337 16H17.0559V13C17.0559 12.7348 17.1671 12.4804 17.365 12.2929C17.563 12.1054 17.8315 12 18.1114 12ZM18.1114 8C18.3805 8.00028 18.6392 8.09788 18.8349 8.27285C19.0305 8.44782 19.1482 8.68695 19.164 8.94139C19.1798 9.19584 19.0924 9.44638 18.9197 9.64183C18.747 9.83729 18.5021 9.9629 18.2349 9.993L18.1114 10H1.22255C0.953508 9.99972 0.694736 9.90212 0.499103 9.72715C0.303471 9.55218 0.185744 9.31305 0.169977 9.05861C0.15421 8.80416 0.241593 8.55362 0.414272 8.35817C0.58695 8.16271 0.831891 8.0371 1.09905 8.007L1.22255 8H18.1114ZM6.50033 0C6.78028 0 7.04876 0.105357 7.24672 0.292893C7.44467 0.48043 7.55588 0.734784 7.55588 1C7.55588 1.26522 7.44467 1.51957 7.24672 1.70711C7.04876 1.89464 6.78028 2 6.50033 2H2.2781V5C2.2781 5.26522 2.16689 5.51957 1.96894 5.70711C1.77098 5.89464 1.5025 6 1.22255 6C0.942597 6 0.674112 5.89464 0.476157 5.70711C0.278202 5.51957 0.166992 5.26522 0.166992 5V2C0.166992 1.46957 0.389412 0.960859 0.785322 0.585786C1.18123 0.210714 1.7182 0 2.2781 0H6.50033ZM17.0559 0C17.6158 0 18.1528 0.210714 18.5487 0.585786C18.9446 0.960859 19.167 1.46957 19.167 2V5C19.167 5.26522 19.0558 5.51957 18.8578 5.70711C18.6599 5.89464 18.3914 6 18.1114 6C17.8315 6 17.563 5.89464 17.365 5.70711C17.1671 5.51957 17.0559 5.26522 17.0559 5V2H12.8337C12.5537 2 12.2852 1.89464 12.0873 1.70711C11.8893 1.51957 11.7781 1.26522 11.7781 1C11.7781 0.734784 11.8893 0.48043 12.0873 0.292893C12.2852 0.105357 12.5537 0 12.8337 0H17.0559Z" fill="white"/>
</svg>
