<svg width="18" height="19" viewBox="0 0 18 19" fill="none" xmlns="http://www.w3.org/2000/svg">
<path d="M9.22538 2.10893H5.40038C4.43626 2.10893 3.78038 2.10893 3.27413 2.15168C2.78138 2.19105 2.52826 2.26418 2.35276 2.35418C1.92941 2.56989 1.58522 2.91408 1.36951 3.33743C1.27951 3.51293 1.20638 3.76493 1.16701 4.2588C1.12538 4.76393 1.12426 5.41643 1.12426 6.38393V12.4589C1.12426 13.4231 1.12538 14.0789 1.16701 14.5852C1.20751 15.0779 1.28063 15.3311 1.36951 15.5066C1.58551 15.9296 1.92976 16.2738 2.35276 16.4898C2.52826 16.5798 2.78138 16.6529 3.27413 16.6923C3.55538 16.7148 3.88163 16.7261 4.28101 16.7306C4.42726 17.1356 4.65001 17.5203 4.95151 17.8556C3.35401 17.8533 2.51026 17.8252 1.84651 17.4877C1.21208 17.1642 0.696223 16.6484 0.372758 16.0139C0.00488281 15.2917 0.00488281 14.3489 0.00488281 12.4589V6.38393C0.00488281 4.49393 0.00488281 3.54893 0.372758 2.82893C0.697476 2.19541 1.21299 1.6799 1.84651 1.35518C2.56876 0.987305 3.51151 0.987305 5.40151 0.987305H9.22651C11.1165 0.987305 12.0615 0.987305 12.7815 1.35518C13.415 1.6799 13.9305 2.19541 14.2553 2.82893C14.5253 3.35768 14.5973 4.01018 14.6164 5.06768C14.4815 5.06523 14.3467 5.07087 14.2125 5.08455C13.998 4.82182 13.7464 4.59177 13.4655 4.40168L13.4554 4.26668C13.4149 3.77393 13.3429 3.5208 13.2529 3.34418C13.037 2.92125 12.6928 2.57747 12.2696 2.36205C12.0941 2.27205 11.8421 2.19893 11.3483 2.15955C10.842 2.11793 10.1895 2.1168 9.22201 2.1168L9.22538 2.10893Z" fill="white"/>
<path d="M2.81288 4.35893C2.6637 4.35893 2.52062 4.41819 2.41514 4.52368C2.30965 4.62917 2.25038 4.77225 2.25038 4.92143C2.25038 5.07061 2.30965 5.21369 2.41514 5.31918C2.52062 5.42467 2.6637 5.48393 2.81288 5.48393H6.26663C6.88502 5.14682 7.591 5.00484 8.29163 5.07668C8.51888 4.7988 8.78776 4.5558 9.09038 4.35893H2.81288ZM2.81288 7.73393H4.28663C4.15451 8.09449 4.08488 8.47495 4.08076 8.85893H2.82076C2.67157 8.85893 2.5285 8.79967 2.42301 8.69418C2.31752 8.58869 2.25826 8.44561 2.25826 8.29643C2.25826 8.14725 2.31752 8.00417 2.42301 7.89868C2.5285 7.79319 2.67157 7.73393 2.82076 7.73393H2.81288ZM2.91413 11.1089H2.80838C2.6592 11.1089 2.51612 11.1682 2.41063 11.2737C2.30515 11.3792 2.24588 11.5222 2.24588 11.6714C2.24588 11.8206 2.30515 11.9637 2.41063 12.0692C2.51612 12.1747 2.6592 12.2339 2.80838 12.2339V11.9662C2.80838 11.6699 2.84363 11.3842 2.91413 11.1089Z" fill="white"/>
<path fill-rule="evenodd" clip-rule="evenodd" d="M11.2504 14.4839C12.4879 14.4839 13.5004 13.4771 13.5004 12.2339C13.5004 10.9964 12.4935 9.98393 11.2504 9.98393C10.0129 9.98393 9.00038 10.9908 9.00038 12.2339C9.00038 13.4714 10.0073 14.4839 11.2504 14.4839ZM11.2504 13.3589C11.5488 13.3589 11.8349 13.2404 12.0459 13.0294C12.2569 12.8184 12.3754 12.5323 12.3754 12.2339C12.3754 11.9356 12.2569 11.6494 12.0459 11.4384C11.8349 11.2275 11.5488 11.1089 11.2504 11.1089C10.952 11.1089 10.6659 11.2275 10.4549 11.4384C10.2439 11.6494 10.1254 11.9356 10.1254 12.2339C10.1254 12.5323 10.2439 12.8184 10.4549 13.0294C10.6659 13.2404 10.952 13.3589 11.2504 13.3589Z" fill="white"/>
<path fill-rule="evenodd" clip-rule="evenodd" d="M11.4754 5.48393H10.9421C10.0534 5.48393 9.31088 6.1308 9.17588 6.98018C9.09602 7.01099 9.01688 7.04363 8.93851 7.07805C8.59336 6.83198 8.17205 6.71646 7.74966 6.75211C7.32728 6.78775 6.93128 6.97224 6.63226 7.27268L6.25313 7.6518C5.9535 7.95129 5.76958 8.34719 5.73395 8.76933C5.69833 9.19147 5.81331 9.61259 6.05851 9.95806C6.02401 10.0368 5.99138 10.1159 5.96063 10.1954C5.54295 10.266 5.16369 10.482 4.88988 10.8052C4.61607 11.1285 4.46536 11.5381 4.46438 11.9617V12.4949C4.46438 13.3871 5.11351 14.1262 5.96063 14.2724C5.99063 14.3504 6.02251 14.4277 6.05626 14.5042C5.80906 14.8508 5.69275 15.2739 5.72797 15.6982C5.76319 16.1225 5.94767 16.5205 6.24863 16.8217L6.61988 17.1929C7.25213 17.8252 8.23988 17.8904 8.94863 17.3819C9.02213 17.4157 9.09638 17.4468 9.17138 17.4753C9.24076 17.8966 9.45761 18.2794 9.78321 18.5556C10.1088 18.8317 10.522 18.9831 10.9489 18.9828H11.4641C12.3641 18.9828 13.1066 18.3258 13.2529 17.4641C13.3264 17.4348 13.3991 17.4044 13.4711 17.3729C14.1776 17.8837 15.1699 17.8207 15.8111 17.1851L16.1723 16.8239C16.8079 16.1883 16.8709 15.1927 16.3601 14.4839C16.3924 14.4112 16.4228 14.3384 16.4513 14.2657C16.8755 14.1963 17.2612 13.9782 17.5395 13.6505C17.8177 13.3228 17.9703 12.9068 17.97 12.4769V11.9617C17.97 11.0651 17.3164 10.3192 16.4625 10.1842C16.4334 10.1085 16.4026 10.0335 16.3703 9.95918C16.8765 9.25605 16.8135 8.27168 16.179 7.63043L15.81 7.26143C15.5089 6.96046 15.1108 6.77598 14.6865 6.74076C14.2622 6.70554 13.8392 6.82186 13.4925 7.06905C13.416 7.03508 13.3387 7.00283 13.2608 6.9723C13.1898 6.55272 12.9722 6.17196 12.6466 5.89792C12.3211 5.62388 11.9088 5.47437 11.4833 5.47605L11.4754 5.48393ZM10.2716 7.28393C10.2716 6.9138 10.5709 6.61455 10.941 6.61455H11.4743C11.8455 6.61455 12.147 6.91605 12.147 7.2873C12.147 7.60455 12.3709 7.87343 12.6713 7.97693C12.8483 8.03768 13.02 8.1093 13.1865 8.1918C13.4723 8.33243 13.8233 8.30093 14.0483 8.07593C14.1748 7.94987 14.3461 7.87909 14.5247 7.87909C14.7033 7.87909 14.8746 7.94987 15.0011 8.07593L15.3713 8.44605C15.4982 8.57324 15.5695 8.7456 15.5695 8.9253C15.5695 9.10501 15.4982 9.27737 15.3713 9.40455C15.1451 9.63068 15.1125 9.98168 15.252 10.2686C15.3308 10.4313 15.3998 10.5989 15.459 10.7714C15.5636 11.0752 15.8348 11.3024 16.1554 11.3024C16.53 11.3024 16.8338 11.6062 16.8338 11.9808V12.4961C16.8338 12.6769 16.7619 12.8503 16.6341 12.9781C16.5062 13.106 16.3328 13.1778 16.152 13.1778C15.8303 13.1778 15.558 13.4051 15.4523 13.7077C15.3938 13.8772 15.3255 14.0418 15.2475 14.2016C15.1069 14.4907 15.1384 14.8451 15.3668 15.0723C15.4302 15.1355 15.4805 15.2107 15.5149 15.2934C15.5492 15.3761 15.5669 15.4648 15.5669 15.5544C15.5669 15.6439 15.5492 15.7326 15.5149 15.8153C15.4805 15.8981 15.4302 15.9732 15.3668 16.0364L15.0056 16.3976C14.9424 16.461 14.8673 16.5113 14.7845 16.5457C14.7018 16.58 14.6131 16.5977 14.5236 16.5977C14.434 16.5977 14.3453 16.58 14.2626 16.5457C14.1799 16.5113 14.1047 16.461 14.0415 16.3976C13.8143 16.1703 13.4599 16.1377 13.1708 16.2783C13.011 16.3563 12.8464 16.4246 12.6769 16.4831C12.3731 16.5888 12.1459 16.8611 12.1459 17.1828C12.1459 17.3636 12.0741 17.537 11.9462 17.6649C11.8183 17.7927 11.6449 17.8646 11.4641 17.8646H10.9489C10.769 17.8646 10.5964 17.7931 10.4692 17.6659C10.342 17.5386 10.2705 17.3661 10.2705 17.1862C10.2705 16.8656 10.0433 16.5933 9.73951 16.4898C9.56786 16.431 9.39993 16.3619 9.23663 16.2828C8.94976 16.1433 8.59876 16.1759 8.37263 16.4009C8.24545 16.5279 8.07309 16.5992 7.89338 16.5992C7.71368 16.5992 7.54132 16.5279 7.41413 16.4009L7.04401 16.0308C6.91795 15.9043 6.84716 15.733 6.84716 15.5544C6.84716 15.3758 6.91795 15.2044 7.04401 15.0779C7.26901 14.8529 7.30051 14.5019 7.15988 14.2162C7.07766 14.049 7.0059 13.877 6.94501 13.7009C6.84151 13.4006 6.57263 13.1767 6.25538 13.1767C6.07714 13.1761 5.90637 13.105 5.78033 12.979C5.6543 12.8529 5.58323 12.6822 5.58263 12.5039V11.9707C5.58263 11.6006 5.88188 11.3013 6.25201 11.3013C6.56926 11.3013 6.83701 11.0774 6.93938 10.7771C7.00066 10.5979 7.07318 10.4228 7.15651 10.2528C7.29601 9.9693 7.26451 9.62168 7.04063 9.39781C6.91519 9.2721 6.84474 9.10177 6.84474 8.92418C6.84474 8.74659 6.91519 8.57626 7.04063 8.45055L7.41976 8.07143C7.54546 7.94599 7.7158 7.87553 7.89338 7.87553C8.07097 7.87553 8.24131 7.94599 8.36701 8.07143C8.59088 8.2953 8.93851 8.3268 9.22201 8.1873C9.39076 8.1048 9.56551 8.03243 9.74626 7.97018C10.0466 7.86893 10.2705 7.60005 10.2705 7.2828L10.2716 7.28393Z" fill="white"/>
</svg>
