<svg width="32" height="32" viewBox="0 0 32 32" fill="none" xmlns="http://www.w3.org/2000/svg">
<path d="M16 26C10.4477 26 6 21.5523 6 16C6 10.4477 10.4477 6 16 6C16.5523 6 17 6.44772 17 7C17 7.55228 16.5523 8 16 8C11.5523 8 8 11.5523 8 16C8 20.4477 11.5523 24 16 24C20.4477 24 24 20.4477 24 16C24 13.6707 23.0221 11.5219 21.3363 10.019C20.9241 9.6515 20.8879 9.01938 21.2554 8.60713C21.6229 8.19489 22.255 8.15865 22.6673 8.52617C24.7756 10.4058 26 13.0963 26 16C26 21.5523 21.5523 26 16 26Z" fill="white"/>
<path d="M13.2929 2.29289C13.6534 1.93241 14.2206 1.90468 14.6129 2.2097L14.7071 2.29289L18.7071 6.29289C19.0676 6.65338 19.0953 7.22061 18.7903 7.6129L18.7071 7.70711L14.7071 11.7071C14.3166 12.0976 13.6834 12.0976 13.2929 11.7071C12.9324 11.3466 12.9047 10.7794 13.2097 10.3871L13.2929 10.2929L16.585 7L13.2929 3.70711C12.9324 3.34662 12.9047 2.77939 13.2097 2.3871L13.2929 2.29289Z" fill="white"/>
</svg>
