<svg width="27" height="27" viewBox="0 0 27 27" fill="none" xmlns="http://www.w3.org/2000/svg">
<path d="M6.75 15.1875H11.8125V16.875H6.75V15.1875ZM6.75 18.5625H15.1875V20.25H6.75V18.5625Z" fill="#3DA48F"/>
<path d="M21.9375 3.375H5.0625C4.61515 3.37567 4.18632 3.55367 3.87 3.87C3.55367 4.18632 3.37567 4.61515 3.375 5.0625V21.9375C3.37567 22.3848 3.55367 22.8137 3.87 23.13C4.18632 23.4463 4.61515 23.6243 5.0625 23.625H21.9375C22.3848 23.6243 22.8137 23.4463 23.13 23.13C23.4463 22.8137 23.6243 22.3848 23.625 21.9375V5.0625C23.6243 4.61515 23.4463 4.18632 23.13 3.87C22.8137 3.55367 22.3848 3.37567 21.9375 3.375ZM15.1875 5.0625V8.4375H11.8125V5.0625H15.1875ZM5.0625 21.9375V5.0625H10.125V10.125H16.875V5.0625H21.9375L21.9383 21.9375H5.0625Z" fill="#3DA48F"/>
</svg>
